<?xml version="1.0" standalone="no"?>
<!DOCTYPE svg PUBLIC "-//W3C//DTD SVG 20010904//EN"
 "http://www.w3.org/TR/2001/REC-SVG-20010904/DTD/svg10.dtd">
<svg version="1.0" xmlns="http://www.w3.org/2000/svg"
 width="530.000000pt" height="530.000000pt" viewBox="0 0 530.000000 530.000000"
 preserveAspectRatio="xMidYMid meet">

<g transform="translate(0.000000,530.000000) scale(0.100000,-0.100000)"
fill="#000000" stroke="none">
<path d="M2310 4963 c-324 -49 -528 -111 -780 -239 -144 -73 -270 -153 -387
-246 l-83 -65 171 -199 c94 -110 179 -207 189 -218 18 -18 21 -17 112 51 121
91 295 193 328 193 7 0 10 -503 10 -1590 0 -1087 -3 -1590 -10 -1590 -32 0
-204 101 -329 193 -249 184 -496 511 -580 770 -11 32 -16 37 -34 31 -129 -39
-514 -168 -520 -174 -12 -10 46 -155 114 -289 303 -587 832 -1016 1469 -1190
101 -27 268 -58 363 -66 l77 -7 0 2321 0 2321 -42 -1 c-24 -1 -54 -3 -68 -6z"/>
<path d="M2780 2650 l0 -2321 58 6 c103 11 275 46 380 76 56 16 105 29 107 29
3 0 5 629 5 1398 l1 1397 25 -65 c14 -36 102 -272 196 -525 94 -253 249 -671
345 -930 96 -259 197 -531 225 -605 27 -74 53 -139 57 -143 5 -4 41 27 81 70
347 372 550 786 626 1283 25 160 25 500 0 660 -38 249 -117 502 -223 715 -38
76 -146 255 -153 255 -10 0 -454 -329 -458 -339 -1 -4 16 -39 39 -77 92 -151
162 -333 206 -539 24 -108 26 -142 27 -340 0 -172 -3 -238 -17 -304 -9 -46
-17 -86 -17 -90 -1 -18 -33 63 -180 460 -89 239 -228 614 -310 834 -81 220
-223 603 -315 850 -92 248 -172 453 -178 457 -37 23 -329 87 -469 103 l-58 6
0 -2321z"/>
<path d="M1755 4090 c-3 -5 -4 -10 -1 -10 2 0 11 -3 20 -6 11 -4 16 -1 16 10
0 18 -25 22 -35 6z"/>
<path d="M4218 2762 c-10 -2 -18 -11 -18 -20 0 -25 33 -112 42 -112 10 0 9 99
0 120 -4 9 -15 14 -24 12z"/>
<path d="M3410 2681 c0 -57 1 -59 25 -57 14 0 25 6 25 12 0 22 -32 104 -41
104 -5 0 -9 -27 -9 -59z"/>
<path d="M1762 1223 c-15 -6 -6 -23 14 -23 8 0 14 7 14 15 0 15 -6 17 -28 8z"/>
</g>
</svg>
